<svg width="28" height="28" viewBox="0 0 28 28" fill="none" xmlns="http://www.w3.org/2000/svg">
<path d="M14.0003 0.719971C6.66699 0.719971 0.666992 6.70664 0.666992 14.08C0.666992 20.7466 5.54699 26.28 11.9203 27.28V17.9466H8.53366V14.08H11.9203V11.1333C11.9203 7.78664 13.907 5.94664 16.9603 5.94664C18.4137 5.94664 19.9337 6.19997 19.9337 6.19997V9.4933H18.2537C16.6003 9.4933 16.0803 10.52 16.0803 11.5733V14.08H19.787L19.187 17.9466H16.0803V27.28C19.2222 26.7838 22.0833 25.1807 24.1469 22.7601C26.2105 20.3394 27.3408 17.2608 27.3337 14.08C27.3337 6.70664 21.3337 0.719971 14.0003 0.719971Z" fill="#1C1C28"/>
</svg>
