<?xml version="1.0" standalone="no"?>
<!DOCTYPE svg PUBLIC "-//W3C//DTD SVG 20010904//EN"
 "http://www.w3.org/TR/2001/REC-SVG-20010904/DTD/svg10.dtd">
<svg version="1.0" xmlns="http://www.w3.org/2000/svg"
 width="128.000000pt" height="128.000000pt" viewBox="0 0 128.000000 128.000000"
 preserveAspectRatio="xMidYMid meet">
<metadata>
Created by potrace 1.16, written by Peter Selinger 2001-2019
</metadata>
<g transform="translate(0.000000,128.000000) scale(0.100000,-0.100000)"
fill="#000000" stroke="none">
<path d="M1250 1250 c0 -5 -7 -10 -15 -10 -8 0 -12 -6 -9 -13 6 -16 -14 -72
-22 -64 -4 3 -35 -5 -70 -18 l-64 -24 -16 25 c-9 13 -15 26 -13 28 2 1 15 10
29 20 l25 17 -40 -6 c-54 -10 -196 -67 -262 -107 -173 -105 -304 -269 -373
-468 -13 -36 -30 -71 -38 -78 -9 -6 -11 -12 -5 -12 8 0 9 -10 2 -32 -17 -60
-11 -87 29 -128 20 -22 48 -41 62 -42 23 -3 25 1 28 43 3 42 9 51 86 128 100
100 108 97 114 -42 l5 -90 -110 -106 c-98 -95 -143 -147 -143 -167 0 -12 217
192 316 297 27 30 63 61 79 69 41 21 137 112 187 179 24 31 45 58 48 61 12 11
69 128 80 163 6 20 16 37 20 37 5 0 7 7 4 15 -4 8 -1 15 6 15 6 0 9 4 6 9 -4
5 -1 22 5 38 6 15 12 37 14 48 8 58 28 145 35 145 3 0 5 14 2 30 -3 18 0 30 7
30 6 0 11 5 11 10 0 6 -4 10 -10 10 -5 0 -10 -4 -10 -10z m-211 -116 c6 -15
10 -28 9 -29 -2 -1 -37 -25 -78 -53 -135 -93 -141 -99 -147 -169 l-6 -62 99
-3 99 -3 0 -30 c0 -35 -19 -43 -117 -44 -37 -1 -69 -5 -73 -10 -3 -6 9 -26 26
-45 62 -71 12 -103 -56 -36 l-43 42 -7 94 c-6 88 -8 93 -26 84 -15 -9 -17 -14
-7 -29 15 -25 3 -67 -23 -74 -19 -5 -59 22 -59 41 0 15 31 52 45 52 7 0 16 8
20 19 3 10 14 26 25 36 12 11 20 31 20 50 0 39 30 70 59 60 15 -4 40 8 93 48
82 60 120 86 129 86 3 1 11 -11 18 -25z"/>
<path d="M308 507 c-34 -23 -58 -50 -83 -97 -19 -36 -53 -96 -75 -135 -50 -88
-110 -213 -110 -231 0 -11 14 -8 63 10 96 36 280 131 302 156 24 27 28 29
-109 -38 -60 -29 -122 -56 -137 -59 -27 -5 -29 -3 -29 23 1 16 7 46 14 66 25
71 129 243 174 291 26 26 44 47 42 46 -3 0 -26 -15 -52 -32z"/>
</g>
</svg>
